<svg width="85" height="99" viewBox="0 0 85 99" fill="none" xmlns="http://www.w3.org/2000/svg">
<mask id="mask0_364_37116" style="mask-type:luminance" maskUnits="userSpaceOnUse" x="0" y="0" width="85" height="99">
<path d="M0 0H84.8021V98.6667H0V0Z" fill="white"/>
</mask>
<g mask="url(#mask0_364_37116)">
<path d="M25.354 98.1927C36.3644 82.4531 39.755 67.6042 41.5415 50.2708C25.4269 53.7604 11.6925 58 2.38005 71.375C1.69776 71.1354 1.00505 70.8906 0.317547 70.651C0.317547 66.6354 -0.479327 62.4271 0.447756 58.6406C6.70296 33.0104 25.7446 19.224 47.7811 8.78646C58.7446 3.58854 70.3019 -0.302081 84.7134 0.0885434C83.2759 8.90104 82.3488 17.151 80.5207 25.1927C76.0728 44.7448 72.328 64.5625 61.6613 82.0573C56.38 90.7188 48.6769 95.9427 39.0415 98.0677C35.38 98.8698 31.3905 98.1927 25.354 98.1927Z" fill="white"/>
</g>
</svg>
