<svg width="27" height="23" viewBox="0 0 27 23" fill="none" xmlns="http://www.w3.org/2000/svg">
<g clip-path="url(#clip0_357_29342)">
<path d="M22.2349 2.05652C22.3418 2.27992 22.4867 2.60401 22.6372 3.00476C22.9384 3.8066 23.263 4.91547 23.3569 6.14441C23.4508 7.37317 23.3143 8.72069 22.6958 10.0018C22.0775 11.2823 20.9753 12.5002 19.1323 13.4696C15.425 15.4204 13.2399 17.0752 12.0083 18.5848C10.8355 20.0225 10.5288 21.328 10.5923 22.6259C10.5315 22.5343 10.4478 22.4078 10.3501 22.2528C9.45017 20.8284 9.3838 19.0203 10.1978 17.5458H10.1987C10.2044 17.535 10.2081 17.5291 10.2163 17.5145C10.668 16.7039 11.5267 15.7146 12.5835 14.955C13.991 13.9428 14.6987 13.2699 15.0806 12.7098C15.4643 12.1471 15.5168 11.699 15.6235 11.1552L15.519 11.1229C15.2875 11.6614 14.8571 12.0998 14.2104 12.6093C13.8875 12.8637 13.512 13.1352 13.0825 13.4452C12.6532 13.755 12.1701 14.1028 11.6333 14.5106C10.1441 15.6403 8.93953 17.2632 8.90967 19.5575C8.71266 19.0959 8.54176 18.6254 8.4292 18.1757V18.1727H8.42822L8.42725 18.1688C8.42639 18.166 8.42497 18.1617 8.42334 18.1561C8.41997 18.1445 8.41491 18.1272 8.40869 18.1044C8.3962 18.0585 8.37921 17.99 8.35889 17.9022C8.31823 17.7265 8.2662 17.4714 8.22314 17.1552C8.137 16.5223 8.08493 15.6449 8.22021 14.6678C8.49057 12.7157 9.50963 10.3626 12.5112 8.75671C15.5285 7.14243 17.8937 5.95501 19.5249 4.8866C21.0706 3.87419 21.9736 2.95677 22.1392 1.86609C22.1654 1.91772 22.1987 1.981 22.2349 2.05652Z" stroke="white" stroke-width="0.11"/>
<path d="M7.7085 -0.0181885L7.71143 -0.0123291C7.7131 -0.00860782 7.71501 -0.00288518 7.71826 0.00427246C7.72499 0.01908 7.73525 0.0411377 7.74854 0.0697021C7.7752 0.127031 7.81494 0.211106 7.8667 0.316772C7.97022 0.528115 8.12226 0.827069 8.31592 1.17615C8.70344 1.87463 9.25775 2.77321 9.92334 3.57751C10.7812 4.61376 10.9687 5.99899 10.5552 7.39197C10.1416 8.78482 9.12628 10.1881 7.57275 11.2699L7.5083 11.3148L7.48877 11.2396C7.13308 9.91092 7.11535 8.51419 7.18604 7.45154C7.22141 6.91996 7.27891 6.47074 7.32764 6.15466C7.33657 6.09674 7.34585 6.04321 7.354 5.99451C6.93412 6.84172 6.78209 7.80285 6.76416 8.70056C6.7441 9.7059 6.89225 10.6276 7.01611 11.2113L7.04932 11.3685L6.92627 11.264C6.5014 10.9037 5.65255 10.1049 5.00928 8.99841C4.36553 7.89108 3.92523 6.47155 4.32861 4.87439C4.80773 2.97959 5.63167 1.75049 6.3374 0.994507C6.69013 0.616675 7.01312 0.356995 7.24854 0.191772C7.36607 0.109285 7.46215 0.0506413 7.52881 0.012085C7.56194 -0.00707266 7.5881 -0.0214814 7.60596 -0.0308838C7.6147 -0.0354821 7.62175 -0.0392542 7.62646 -0.041626C7.62883 -0.0428134 7.63105 -0.0439319 7.63232 -0.0445557H7.63428V-0.0455322L7.68506 -0.0699463L7.7085 -0.0181885Z" stroke="white" stroke-width="0.11"/>
<path d="M2.97119 7.09692C2.98239 7.19283 3.00143 7.33184 3.03271 7.50513C3.09535 7.85195 3.20766 8.3365 3.40479 8.88794C3.79901 9.99069 4.53512 11.3639 5.90186 12.4387C7.23869 13.4901 7.57215 15.0561 7.56885 16.3684C7.56718 17.024 7.48153 17.6143 7.396 18.0403C7.35328 18.253 7.31067 18.4249 7.27881 18.5432C7.277 18.5499 7.27469 18.5564 7.27295 18.5627C6.70213 16.9127 5.85431 16.1537 5.13135 15.8118C4.75909 15.6357 4.4222 15.5716 4.17822 15.551C4.05658 15.5408 3.95791 15.5409 3.88916 15.5442C3.85486 15.5459 3.82758 15.5481 3.80908 15.55C3.79984 15.551 3.79255 15.5523 3.7876 15.553C3.78512 15.5533 3.7831 15.5538 3.78174 15.554H3.77979L3.771 15.6604C5.35459 16.1737 6.19872 17.4923 6.64697 18.6917C6.87086 19.2907 6.99469 19.8582 7.06299 20.2756C7.09709 20.4841 7.11685 20.655 7.12842 20.7737C7.13074 20.7975 7.13162 20.8196 7.1333 20.8391C7.11419 20.8251 7.09256 20.8094 7.06885 20.7922C6.96837 20.7193 6.82876 20.6195 6.67432 20.5149C6.36755 20.3071 5.99358 20.0724 5.74268 19.9817C5.31329 19.8265 4.81859 19.7171 4.32471 19.5706C3.82689 19.4228 3.31947 19.2349 2.84717 18.9192C1.90621 18.29 1.08874 17.1445 0.773926 14.759C0.459679 12.3751 1.02982 10.4304 1.67822 9.0813C2.00239 8.4069 2.34635 7.8812 2.60889 7.52466C2.74016 7.3464 2.85127 7.20966 2.9292 7.11841C2.94328 7.10193 2.95642 7.08703 2.96826 7.07349C2.9691 7.08095 2.97025 7.08884 2.97119 7.09692Z" stroke="white" stroke-width="0.11"/>
</g>
<defs>
<clipPath id="clip0_357_29342">
<rect width="26.7551" height="23" fill="white"/>
</clipPath>
</defs>
</svg>
