<svg width="265" height="280" viewBox="0 0 265 280" fill="none" xmlns="http://www.w3.org/2000/svg">
<path d="M25.6034 222.073C24.7172 222.081 23.8492 222.328 23.0925 222.79C22.3359 223.252 21.7186 223.911 21.307 224.696C20.8954 225.481 20.7048 226.362 20.7554 227.247C20.8062 228.132 21.0962 228.988 21.5948 229.721C35.492 249.934 55.4915 265.172 78.6688 273.208C101.846 281.243 126.985 281.651 150.412 274.377C173.839 267.103 194.325 252.524 208.874 232.774C223.423 213.024 231.271 189.137 231.274 164.606V25.8057C231.267 24.5138 230.752 23.2763 229.84 22.3627C228.925 21.4493 227.688 20.9339 226.397 20.9291H202.53C179.677 20.9486 157.766 30.0394 141.612 46.2042C125.457 62.3691 116.381 84.2861 116.375 107.139V150.235C116.375 169.284 108.81 187.554 95.3419 201.026C81.8734 214.498 63.6056 222.067 44.5561 222.073H25.6034Z" fill="url(#paint0_linear_407_29350)"/>
<path d="M44.8136 194.826C53.6991 194.845 62.3903 192.227 69.7871 187.302C77.1842 182.38 82.9545 175.373 86.3673 167.17C89.7801 158.965 90.6825 149.933 88.9604 141.216C87.2382 132.5 82.9679 124.489 76.6917 118.2C70.4152 111.91 62.4141 107.624 53.7006 105.884C44.9872 104.144 35.9534 105.028 27.7427 108.424C19.5318 111.82 12.5131 117.575 7.5747 124.962C2.63627 132.349 1.87942e-05 141.035 0 149.921V179.827C0.00488827 183.804 1.58654 187.617 4.39842 190.428C7.21032 193.24 11.0231 194.821 14.9996 194.826H44.8136Z" fill="url(#paint1_linear_407_29350)"/>
<path style="mix-blend-mode:overlay" opacity="0.4" d="M21.3027 224.696C69.5891 255.582 133.983 260.459 164.684 188.288C195.385 116.116 135.48 51.5929 231.184 25.7318C326.889 -0.129307 187.996 1.268e-05 187.996 1.268e-05L89.6132 50.7062L107.05 174.082L67.7972 213.335H15.8719L21.3027 224.696Z" fill="url(#paint2_linear_407_29350)"/>
<defs>
<linearGradient id="paint0_linear_407_29350" x1="51.6489" y1="261.899" x2="258.63" y2="58.5752" gradientUnits="userSpaceOnUse">
<stop stop-color="white" stop-opacity="0.6"/>
<stop offset="1" stop-color="white"/>
</linearGradient>
<linearGradient id="paint1_linear_407_29350" x1="224349" y1="186222" x2="229527" y2="181045" gradientUnits="userSpaceOnUse">
<stop stop-color="white"/>
<stop offset="1" stop-color="white" stop-opacity="0"/>
</linearGradient>
<linearGradient id="paint2_linear_407_29350" x1="21.3028" y1="192.167" x2="164.924" y2="111.129" gradientUnits="userSpaceOnUse">
<stop stop-color="#1B1464"/>
<stop offset="1" stop-color="#1B1464" stop-opacity="0"/>
</linearGradient>
</defs>
</svg>
