<svg width="232" height="259" viewBox="0 0 232 259" fill="none" xmlns="http://www.w3.org/2000/svg">
<path d="M25.6034 201.232C24.7172 201.24 23.8492 201.487 23.0925 201.948C22.3359 202.411 21.7186 203.07 21.307 203.855C20.8954 204.64 20.7048 205.521 20.7554 206.406C20.8062 207.291 21.0962 208.146 21.5948 208.879C35.492 229.093 55.4915 244.331 78.6688 252.367C101.846 260.402 126.985 260.81 150.412 253.536C173.839 246.262 194.325 231.683 208.874 211.933C223.423 192.182 231.271 168.296 231.274 143.765V4.96456C231.267 3.67259 230.752 2.43512 229.84 1.52152C228.925 0.608079 227.688 0.0926941 226.397 0.0878906H202.53C179.677 0.107419 157.766 9.19819 141.612 25.363C125.457 41.5279 116.381 63.4449 116.375 86.2974V129.394C116.375 148.443 108.81 166.713 95.3419 180.185C81.8734 193.657 63.6056 201.226 44.5561 201.232H25.6034Z" fill="url(#paint0_linear_410_29345)"/>
<path d="M44.8136 173.985C53.6991 174.003 62.3903 171.386 69.7871 166.461C77.1842 161.539 82.9545 154.532 86.3673 146.328C89.7801 138.124 90.6825 129.092 88.9604 120.375C87.2382 111.659 82.9679 103.648 76.6917 97.3586C70.4152 91.0693 62.4141 86.7832 53.7006 85.0429C44.9872 83.3027 35.9534 84.187 27.7427 87.5825C19.5318 90.9787 12.5131 96.7342 7.5747 104.121C2.63627 111.508 1.87942e-05 120.194 0 129.079V158.986C0.00488827 162.963 1.58654 166.775 4.39842 169.587C7.21032 172.399 11.0231 173.98 14.9996 173.985H44.8136Z" fill="url(#paint1_linear_410_29345)"/>
<path style="mix-blend-mode:overlay" opacity="0.4" d="M21.3026 203.854C69.589 234.74 133.983 239.617 164.684 167.446C195.385 95.2744 135.48 30.7509 231.184 4.88985C231.184 -1.34143 233 0.158689 202 0.157913C183 0.157438 147.5 8.54177 128 42.658C103.853 84.9041 124 129.159 111.5 155.159C99 181.159 87.5 189.159 68 197.159C49.3624 204.805 30 199.159 25 201.159C20 203.159 21.3026 203.854 21.3026 203.854Z" fill="url(#paint2_linear_410_29345)"/>
<defs>
<linearGradient id="paint0_linear_410_29345" x1="51.6489" y1="241.058" x2="258.63" y2="37.734" gradientUnits="userSpaceOnUse">
<stop stop-color="white" stop-opacity="0.6"/>
<stop offset="1" stop-color="white"/>
</linearGradient>
<linearGradient id="paint1_linear_410_29345" x1="224349" y1="186201" x2="229527" y2="181024" gradientUnits="userSpaceOnUse">
<stop stop-color="white"/>
<stop offset="1" stop-color="white" stop-opacity="0"/>
</linearGradient>
<linearGradient id="paint2_linear_410_29345" x1="21.3028" y1="171.325" x2="164.924" y2="90.288" gradientUnits="userSpaceOnUse">
<stop stop-color="#1B1464"/>
<stop offset="1" stop-color="#1B1464" stop-opacity="0"/>
</linearGradient>
</defs>
</svg>
